<?xml version="1.0" encoding="UTF-8"?>
<svg fill="none" viewBox="0 0 19 19" xmlns="http://www.w3.org/2000/svg">
<path d="m1.1756 17.824c0.11704 0.1171 0.26334 0.1756 0.42427 0.1756s0.30723-0.0585 0.42427-0.1756l7.4759-7.4759 7.4759 7.4759c0.117 0.1171 0.2633 0.1756 0.4243 0.1756 0.1463 0 0.3072-0.0585 0.4242-0.1756 0.2341-0.234 0.2341-0.6144 0-0.8485l-7.4759-7.4759 7.4759-7.4759c0.2341-0.23408 0.2341-0.61446 0-0.84854-0.234-0.23408-0.6144-0.23408-0.8485 0l-7.4759 7.4759-7.4759-7.4759c-0.23408-0.23408-0.61446-0.23408-0.84854 0s-0.23408 0.61446 0 0.84854l7.4759 7.4759-7.4759 7.4759c-0.23408 0.2341-0.23408 0.6145 0 0.8485z" clip-rule="evenodd" fill="#016F34" fill-rule="evenodd" stroke="#016F34" stroke-width="2"/>
</svg>
