<svg width="22" height="24" viewBox="0 0 22 24" fill="none" xmlns="http://www.w3.org/2000/svg">
<path fill-rule="evenodd" clip-rule="evenodd" d="M10.751 2C9.09398 2 7.75098 3.34 7.75098 5H13.751C13.751 3.34 12.408 2 10.751 2ZM13.751 7V8C13.751 8.55 14.199 9 14.751 9C15.303 9 15.751 8.55 15.751 8V7H16.973C17.48 7 17.906 7.38 17.966 7.88L19.495 20.88C19.565 21.48 19.101 22 18.502 22H2.99998C2.40098 22 1.93698 21.48 2.00698 20.88L3.53598 7.88C3.59598 7.38 4.02198 7 4.52898 7H5.75098V8C5.75098 8.55 6.19898 9 6.75098 9C7.30298 9 7.75098 8.55 7.75098 8V7H13.751ZM5.75098 5H4.52898C3.00798 5 1.72798 6.14 1.54998 7.65L0.0209835 20.65C-0.189017 22.43 1.20398 24 2.99998 24H18.502C20.298 24 21.691 22.43 21.481 20.65L19.952 7.65C19.774 6.14 18.494 5 16.973 5H15.751C15.751 2.24 13.512 0 10.751 0C7.98898 0 5.75098 2.24 5.75098 5Z" fill="white"/>
</svg>
