<svg width="34" height="34" viewBox="0 0 34 34" fill="none" xmlns="http://www.w3.org/2000/svg">
<path fill-rule="evenodd" clip-rule="evenodd" d="M16.921 3.07655C24.5678 3.07655 30.7655 9.27426 30.7655 16.921C30.7655 19.5761 30.0194 22.0527 28.7257 24.1586L28.3089 24.837L30.9132 30.9132L24.837 28.3089L24.1571 28.7257C22.0527 30.0194 19.5761 30.7655 16.921 30.7655C9.27426 30.7655 3.07655 24.5678 3.07655 16.921C3.07655 9.27426 9.27426 3.07655 16.921 3.07655ZM33.842 16.921C33.842 7.576 26.266 0 16.921 0C7.576 0 0 7.576 0 16.921C0 26.266 7.576 33.842 16.921 33.842C19.8714 33.842 22.6496 33.0852 25.0677 31.7561L29.701 33.7421C32.2545 34.8358 34.8358 32.2545 33.742 29.701L31.7561 25.0677C33.0852 22.6496 33.842 19.8714 33.842 16.921ZM24.6124 13.8445C24.6124 12.9953 23.9232 12.3062 23.0741 12.3062H18.4593C17.6102 12.3062 16.921 12.9953 16.921 13.8445C16.921 14.6936 17.6102 15.3827 18.4593 15.3827H23.0741C23.9232 15.3827 24.6124 14.6936 24.6124 13.8445ZM24.6124 19.9976C24.6124 19.1484 23.9232 18.4593 23.0741 18.4593H10.7679C9.91879 18.4593 9.22965 19.1484 9.22965 19.9976C9.22965 20.8467 9.91879 21.5358 10.7679 21.5358H23.0741C23.9232 21.5358 24.6124 20.8467 24.6124 19.9976Z" fill="#00702B"/>
</svg>
