<svg width="30" height="30" viewBox="0 0 30 30" fill="none" xmlns="http://www.w3.org/2000/svg">
<path opacity="0.345428" fill-rule="evenodd" clip-rule="evenodd" d="M15 30C23.2843 30 30 23.2843 30 15C30 6.71573 23.2843 0 15 0C6.71573 0 0 6.71573 0 15C0 23.2843 6.71573 30 15 30Z" fill="#979797"/>
<path fill-rule="evenodd" clip-rule="evenodd" d="M10.1886 10.191C9.93714 10.4457 9.93714 10.8586 10.1886 11.1133L14.0254 15L10.1886 18.8867C9.93714 19.1414 9.93714 19.5543 10.1886 19.809C10.44 20.0637 10.8476 20.0637 11.0991 19.809L15 15.8574L18.9009 19.809C19.1524 20.0637 19.56 20.0637 19.8114 19.809C20.0629 19.5543 20.0629 19.1414 19.8114 18.8867L15.9746 15L19.8114 11.1133C20.0629 10.8586 20.0629 10.4457 19.8114 10.191C19.56 9.93633 19.1524 9.93633 18.9009 10.191L15 14.1426L11.0991 10.191C10.8476 9.93633 10.44 9.93633 10.1886 10.191Z" fill="#7A7A7A"/>
<path d="M10.1886 11.1133L10.3665 10.9377L10.1886 11.1133ZM10.1886 10.191L10.0107 10.0154L10.0107 10.0154L10.1886 10.191ZM14.0254 15L14.2034 15.1756L14.3767 15L14.2034 14.8244L14.0254 15ZM10.1886 18.8867L10.0107 18.711H10.0107L10.1886 18.8867ZM10.1886 19.809L10.0107 19.9846H10.0107L10.1886 19.809ZM11.0991 19.809L11.277 19.9846H11.277L11.0991 19.809ZM15 15.8574L15.1779 15.6818L15 15.5016L14.8221 15.6818L15 15.8574ZM18.9009 19.809L18.723 19.9846L18.9009 19.809ZM19.8114 19.809L19.9893 19.9846L19.8114 19.809ZM19.8114 18.8867L19.9893 18.711L19.8114 18.8867ZM15.9746 15L15.7966 14.8244L15.6233 15L15.7966 15.1756L15.9746 15ZM19.8114 11.1133L19.6335 10.9377L19.8114 11.1133ZM18.9009 10.191L18.723 10.0154V10.0154L18.9009 10.191ZM15 14.1426L14.8221 14.3182L15 14.4984L15.1779 14.3182L15 14.1426ZM11.0991 10.191L11.277 10.0154V10.0154L11.0991 10.191ZM10.3665 10.9377C10.2112 10.7804 10.2112 10.524 10.3665 10.3667L10.0107 10.0154C9.66311 10.3674 9.66311 10.9369 10.0107 11.289L10.3665 10.9377ZM14.2034 14.8244L10.3665 10.9377L10.0107 11.289L13.8475 15.1756L14.2034 14.8244ZM10.3665 19.0623L14.2034 15.1756L13.8475 14.8244L10.0107 18.711L10.3665 19.0623ZM10.3665 19.6333C10.2112 19.476 10.2112 19.2196 10.3665 19.0623L10.0107 18.711C9.66311 19.0631 9.66311 19.6326 10.0107 19.9846L10.3665 19.6333ZM10.9212 19.6333C10.7676 19.7889 10.52 19.7889 10.3665 19.6333L10.0107 19.9846C10.36 20.3385 10.9277 20.3385 11.277 19.9846L10.9212 19.6333ZM14.8221 15.6818L10.9212 19.6333L11.277 19.9846L15.1779 16.0331L14.8221 15.6818ZM14.8221 16.0331L18.723 19.9846L19.0788 19.6333L15.1779 15.6818L14.8221 16.0331ZM18.723 19.9846C19.0723 20.3385 19.64 20.3385 19.9893 19.9846L19.6335 19.6333C19.48 19.7889 19.2324 19.7889 19.0788 19.6333L18.723 19.9846ZM19.9893 19.9846C20.3369 19.6326 20.3369 19.0631 19.9893 18.711L19.6335 19.0623C19.7888 19.2196 19.7888 19.476 19.6335 19.6333L19.9893 19.9846ZM19.9893 18.711L16.1525 14.8244L15.7966 15.1756L19.6335 19.0623L19.9893 18.711ZM16.1525 15.1756L19.9893 11.289L19.6335 10.9377L15.7966 14.8244L16.1525 15.1756ZM19.9893 11.289C20.3369 10.9369 20.3369 10.3674 19.9893 10.0154L19.6335 10.3667C19.7888 10.524 19.7888 10.7804 19.6335 10.9377L19.9893 11.289ZM19.9893 10.0154C19.64 9.66154 19.0723 9.66154 18.723 10.0154L19.0788 10.3667C19.2324 10.2111 19.48 10.2111 19.6335 10.3667L19.9893 10.0154ZM18.723 10.0154L14.8221 13.9669L15.1779 14.3182L19.0788 10.3667L18.723 10.0154ZM10.9212 10.3667L14.8221 14.3182L15.1779 13.9669L11.277 10.0154L10.9212 10.3667ZM10.3665 10.3667C10.52 10.2111 10.7676 10.2111 10.9212 10.3667L11.277 10.0154C10.9277 9.66154 10.36 9.66154 10.0107 10.0154L10.3665 10.3667Z" fill="#7A7A7A"/>
</svg>
