<svg width="27" height="26" viewBox="0 0 27 26" fill="none" xmlns="http://www.w3.org/2000/svg">
<path fill-rule="evenodd" clip-rule="evenodd" d="M13.6022 11.6801C20.9917 11.6801 26.9822 9.23951 26.9822 6.22894C26.9822 3.21838 20.9917 0.777832 13.6022 0.777832C6.2126 0.777832 0.222168 3.21838 0.222168 6.22894C0.222168 9.23951 6.2126 11.6801 13.6022 11.6801Z" fill="#227840"/>
<path fill-rule="evenodd" clip-rule="evenodd" d="M13.184 13.7407C17.5277 13.8087 21.8283 13.1013 25.7111 11.6801C26.4841 12.2214 26.9396 12.9599 26.9822 13.7407C26.9822 16.4353 20.5765 18.6178 13.184 18.6178C5.79159 18.6178 0.222168 16.4353 0.222168 13.7407C0.25424 13.0216 0.647001 12.3362 1.32602 11.8142C5.00064 13.1587 9.07403 13.8205 13.184 13.7407Z" fill="#227840"/>
<path fill-rule="evenodd" clip-rule="evenodd" d="M13.184 20.6784C17.5277 20.7464 21.8283 20.039 25.7111 18.6178C26.4841 19.1591 26.9396 19.8976 26.9822 20.6784C26.9822 23.373 20.5765 25.5556 13.184 25.5556C5.79159 25.5556 0.222168 23.373 0.222168 20.6784C0.25424 19.9594 0.647001 19.2739 1.32602 18.7519C5.00064 20.0965 9.07403 20.7582 13.184 20.6784Z" fill="#227840"/>
</svg>
