<svg width="23" height="22" viewBox="0 0 23 22" fill="none" xmlns="http://www.w3.org/2000/svg">
<path opacity="0.353369" fill-rule="evenodd" clip-rule="evenodd" d="M11.4614 9.9357C17.6687 9.9357 22.7006 7.88564 22.7006 5.35677C22.7006 2.82789 17.6687 0.777832 11.4614 0.777832C5.25418 0.777832 0.222221 2.82789 0.222221 5.35677C0.222221 7.88564 5.25418 9.9357 11.4614 9.9357Z" fill="black"/>
<path opacity="0.353369" fill-rule="evenodd" clip-rule="evenodd" d="M11.1102 11.6667C14.7589 11.7238 18.3714 11.1296 21.6329 9.93579C22.2822 10.3905 22.6649 11.0108 22.7006 11.6667C22.7006 13.9302 17.3199 15.7635 11.1102 15.7635C4.90054 15.7635 0.222221 13.9302 0.222221 11.6667C0.249162 11.0627 0.579081 10.4869 1.14946 10.0485C4.23613 11.1779 7.65778 11.7337 11.1102 11.6667Z" fill="black"/>
<path opacity="0.353369" fill-rule="evenodd" clip-rule="evenodd" d="M11.1102 17.4943C14.7589 17.5515 18.3714 16.9572 21.6329 15.7634C22.2822 16.2181 22.6649 16.8385 22.7006 17.4943C22.7006 19.7578 17.3199 21.5912 11.1102 21.5912C4.90054 21.5912 0.222221 19.7578 0.222221 17.4943C0.249162 16.8904 0.579081 16.3146 1.14946 15.8761C4.23613 17.0055 7.65778 17.5614 11.1102 17.4943Z" fill="black"/>
</svg>
