<svg width="25" height="26" viewBox="0 0 25 26" fill="none" xmlns="http://www.w3.org/2000/svg">
<g opacity="0.499163">
<path fill-rule="evenodd" clip-rule="evenodd" d="M18.4428 10.2214C18.4428 12.6089 17.53 14.7883 16.0356 16.4273L23.874 24.266C24.042 24.434 24.042 24.706 23.874 24.874C23.706 25.042 23.434 25.042 23.266 24.874L15.4274 17.0353C13.7882 18.5297 11.6095 19.4425 9.22128 19.4425C4.13678 19.4425 0 15.3057 0 10.2211C0 5.13656 4.13678 0.999733 9.22128 1C14.3061 1 18.4428 5.13682 18.4428 10.2214ZM0.859995 10.2214C0.859995 14.8318 4.61064 18.5828 9.22155 18.5828C13.8319 18.5828 17.5831 14.8315 17.5831 10.2214C17.5831 5.61042 13.8322 1.85947 9.22155 1.85947C4.61064 1.85947 0.859995 5.61042 0.859995 10.2214Z" fill="black"/>
<path d="M16.0356 16.4273L15.2967 15.7535L14.6533 16.4591L15.3285 17.1344L16.0356 16.4273ZM23.874 24.266L23.1669 24.9731L23.1669 24.9731L23.874 24.266ZM23.266 24.874L23.9731 24.1669V24.1669L23.266 24.874ZM15.4274 17.0353L16.1345 16.3282L15.4593 15.653L14.7537 16.2963L15.4274 17.0353ZM9.22128 1L9.22123 2H9.22128V1ZM16.7746 17.1011C18.4298 15.2857 19.4428 12.8685 19.4428 10.2214H17.4428C17.4428 12.3492 16.6303 14.2909 15.2967 15.7535L16.7746 17.1011ZM24.5811 23.5589L16.7428 15.7202L15.3285 17.1344L23.1669 24.9731L24.5811 23.5589ZM24.5811 25.5811C25.1396 25.0226 25.1396 24.1174 24.5811 23.5589L23.1669 24.9731C22.9444 24.7506 22.9444 24.3894 23.1669 24.1669L24.5811 25.5811ZM22.5589 25.5811C23.1174 26.1396 24.0226 26.1396 24.5811 25.5811L23.1669 24.1669C23.3894 23.9444 23.7506 23.9444 23.9731 24.1669L22.5589 25.5811ZM14.7203 17.7424L22.5589 25.5811L23.9731 24.1669L16.1345 16.3282L14.7203 17.7424ZM9.22128 20.4425C11.8693 20.4425 14.2856 19.4294 16.1011 17.7743L14.7537 16.2963C13.2908 17.63 11.3498 18.4425 9.22128 18.4425V20.4425ZM-1 10.2211C-1 15.858 3.58448 20.4425 9.22128 20.4425V18.4425C4.68907 18.4425 1 14.7534 1 10.2211H-1ZM9.22133 0C3.58448 -0.000295639 -1 4.58429 -1 10.2211H1C1 5.68882 4.68907 1.99976 9.22123 2L9.22133 0ZM19.4428 10.2214C19.4428 4.58453 14.8583 0 9.22128 0V2C13.7538 2 17.4428 5.68912 17.4428 10.2214H19.4428ZM9.22155 17.5828C5.16294 17.5828 1.86 14.2795 1.86 10.2214H-0.140005C-0.140005 15.3841 4.05835 19.5828 9.22155 19.5828V17.5828ZM16.5831 10.2214C16.5831 14.2792 13.2796 17.5828 9.22155 17.5828V19.5828C14.3842 19.5828 18.5831 15.3838 18.5831 10.2214H16.5831ZM9.22155 2.85947C13.2799 2.85947 16.5831 6.16268 16.5831 10.2214H18.5831C18.5831 5.05817 14.3845 0.859471 9.22155 0.859471V2.85947ZM1.86 10.2214C1.86 6.16266 5.16298 2.85947 9.22155 2.85947V0.859471C4.0583 0.859471 -0.140005 5.05819 -0.140005 10.2214H1.86Z" fill="black"/>
</g>
</svg>
