<svg width="27" height="27" viewBox="0 0 27 27" fill="none" xmlns="http://www.w3.org/2000/svg">
<path fill-rule="evenodd" clip-rule="evenodd" d="M20.2113 10.6056C20.2113 13.0926 19.2605 15.3629 17.7038 17.0701L25.8688 25.2354C26.0438 25.4104 26.0438 25.6937 25.8688 25.8687C25.6938 26.0438 25.4104 26.0438 25.2354 25.8687L17.0702 17.7034C15.3627 19.2601 13.0933 20.2109 10.6055 20.2109C5.30914 20.2109 1 15.9017 1 10.6053C1 5.30891 5.30914 0.999722 10.6055 1C15.9021 1 20.2113 5.30919 20.2113 10.6056ZM1.89583 10.6056C1.89583 15.4081 5.80275 19.3154 10.6058 19.3154C15.4083 19.3154 19.3157 15.4079 19.3157 10.6056C19.3157 5.80253 15.4085 1.89528 10.6058 1.89528C5.80275 1.89528 1.89583 5.80253 1.89583 10.6056Z" fill="black"/>
<path d="M17.7038 17.0701L16.9649 16.3963L16.3215 17.1019L16.9967 17.7772L17.7038 17.0701ZM25.8688 25.2354L25.1616 25.9425L25.1616 25.9425L25.8688 25.2354ZM25.2354 25.8687L24.5283 26.5759L24.5283 26.5759L25.2354 25.8687ZM17.0702 17.7034L17.7773 16.9963L17.1021 16.3211L16.3965 16.9644L17.0702 17.7034ZM10.6055 1L10.6054 2H10.6055V1ZM18.4427 17.7439C20.1602 15.8603 21.2113 13.3522 21.2113 10.6056H19.2113C19.2113 12.8329 18.3607 14.8655 16.9649 16.3963L18.4427 17.7439ZM26.5759 24.5283L18.4109 16.363L16.9967 17.7772L25.1616 25.9425L26.5759 24.5283ZM26.5759 26.5759C27.1414 26.0103 27.1414 25.0938 26.5759 24.5283L25.1616 25.9425C24.9461 25.727 24.9461 25.3772 25.1616 25.1616L26.5759 26.5759ZM24.5283 26.5759C25.0938 27.1414 26.0103 27.1414 26.5759 26.5759L25.1616 25.1616C25.3772 24.9461 25.727 24.9461 25.9425 25.1616L24.5283 26.5759ZM16.3631 18.4105L24.5283 26.5759L25.9425 25.1616L17.7773 16.9963L16.3631 18.4105ZM10.6055 21.2109C13.353 21.2109 15.8601 20.1598 17.7439 18.4424L16.3965 16.9644C14.8653 18.3604 12.8335 19.2109 10.6055 19.2109V21.2109ZM0 10.6053C0 16.454 4.75685 21.2109 10.6055 21.2109V19.2109C5.86144 19.2109 2 15.3495 2 10.6053H0ZM10.6056 1.4802e-08C4.75685 -0.00030671 0 4.75665 0 10.6053H2C2 5.86118 5.86144 1.99975 10.6054 2L10.6056 1.4802e-08ZM21.2113 10.6056C21.2113 4.7569 16.4544 1.34268e-08 10.6055 1.34268e-08V2C15.3499 2 19.2113 5.86148 19.2113 10.6056H21.2113ZM10.6058 18.3154C6.35505 18.3154 2.89583 14.8559 2.89583 10.6056H0.895828C0.895828 15.9604 5.25046 20.3154 10.6058 20.3154V18.3154ZM18.3157 10.6056C18.3157 14.8556 14.856 18.3154 10.6058 18.3154V20.3154C15.9605 20.3154 20.3157 15.9602 20.3157 10.6056H18.3157ZM10.6058 2.89528C14.8562 2.89528 18.3157 6.35478 18.3157 10.6056H20.3157C20.3157 5.25027 15.9608 0.895283 10.6058 0.895283V2.89528ZM2.89583 10.6056C2.89583 6.35476 6.35509 2.89528 10.6058 2.89528V0.895283C5.25041 0.895283 0.895828 5.25029 0.895828 10.6056H2.89583Z" fill="black"/>
</svg>
