<svg width="27" height="28" viewBox="0 0 27 28" fill="none" xmlns="http://www.w3.org/2000/svg">
<path fill-rule="evenodd" clip-rule="evenodd" d="M14.1453 7.23248C14.1455 7.53659 14.2665 7.82816 14.4817 8.04306C14.6774 8.25883 14.9551 8.38189 15.2464 8.38189C15.5377 8.38189 15.8155 8.25883 16.0111 8.04306L18.9247 5.03012V22.5266C18.9247 23.1601 19.4382 23.6737 20.0717 23.6737C20.7052 23.6737 21.2188 23.1601 21.2188 22.5266V4.77777L24.2776 8.00483C24.7278 8.46711 25.4618 8.49404 25.9447 8.06601C26.1721 7.86335 26.3096 7.57857 26.3268 7.27445C26.344 6.97033 26.2395 6.67185 26.0364 6.44483L21.4482 1.47424C21.1919 1.20115 20.8157 1.07479 20.4464 1.13777C20.0752 1.06175 19.6905 1.17657 19.4217 1.44365L14.4511 6.41424C14.2445 6.63552 14.1345 6.92993 14.1453 7.23248Z" fill="#016F34" stroke="#016F34"/>
<path fill-rule="evenodd" clip-rule="evenodd" d="M7.28586 26.7015C7.65203 26.7774 8.03213 26.6688 8.30292 26.411L13.2735 21.6315C13.7208 21.1837 13.7208 20.4582 13.2735 20.0104C12.7875 19.5624 12.039 19.5624 11.5529 20.0104L8.42528 22.9239V5.70272C8.42528 5.06922 7.91172 4.55566 7.27822 4.55566C6.64471 4.55566 6.13116 5.06922 6.13116 5.70272V23.0692L3.24822 19.8421C3.05052 19.6199 2.77082 19.4878 2.47359 19.4762C2.17636 19.4647 1.88726 19.5747 1.67292 19.781C1.44493 20.0004 1.32 20.3058 1.32881 20.6221C1.33539 20.907 1.44706 21.1794 1.64233 21.3868L6.23057 26.3574C6.49891 26.6473 6.89823 26.7775 7.28586 26.7015Z" fill="#016F34" stroke="#016F34"/>
</svg>
